<svg width="810" height="810" version="1.1" xmlns="http://www.w3.org/2000/svg" desc="Created with imagetracer.js version 1.2.6" ><path fill="rgb(218,41,28)" stroke="rgb(218,41,28)" stroke-width="1" opacity="0.984313725490196" d="M 401.5 155 L 408.5 155 L 418.5 157 L 431.5 164 L 517 249.5 L 449 250 L 449 354 L 360 354 L 360 250 L 293.5 250 L 378.5 164 L 388.5 158 L 401.5 155 Z " /><path fill="rgb(218,41,28)" stroke="rgb(218,41,28)" stroke-width="1" opacity="0.984313725490196" d="M 249.5 293 L 250 516.5 L 164 431.5 Q 154.5 421 155 400.5 L 158 388.5 L 164 378.5 L 249.5 293 Z " /><path fill="rgb(218,41,28)" stroke="rgb(218,41,28)" stroke-width="1" opacity="0.984313725490196" d="M 560.5 293 L 646 378.5 L 652 389.5 L 654 395.5 Q 652.7 402.3 655 405.5 L 652 420.5 L 645 432.5 L 560.5 517 L 560.5 293 Z " /><path fill="rgb(218,41,28)" stroke="rgb(218,41,28)" stroke-width="1" opacity="0.984313725490196" d="M 360 456 L 449 456 L 449 560 L 516.5 560 L 432.5 645 Q 422 654.5 402.5 655 L 391.5 653 L 378.5 646 L 293 560.5 L 360 560 L 360 456 Z " /><path fill="rgb(0,0,0)" stroke="rgb(0,0,0)" stroke-width="1" opacity="0" d="M 0 0 L 810 0 L 810 810 L 0 810 L 0 0 Z M 402 155 L 389 158 L 379 164 L 294 250 L 360 250 L 360 354 L 449 354 L 449 250 L 517 250 L 432 164 L 419 157 L 409 155 L 402 155 Z M 250 293 L 164 379 L 158 389 L 155 401 Q 155 421 164 432 L 250 517 L 250 293 Z M 561 293 L 561 517 L 645 433 L 652 421 L 655 406 Q 653 402 654 396 L 652 390 L 646 379 L 561 293 Z M 360 456 L 360 560 L 293 561 L 379 646 L 392 653 L 403 655 Q 422 655 433 645 L 517 560 L 449 560 L 449 456 L 360 456 Z " /></svg>